# xmcd
#
# Track frame offsets:
#	150
#	10100
#	18111
#	30636
#	41068
#	53450
#	74167
#	87093
#	113944
#	128114
#	142641
#	162015
#	179607
#	193089
#	204284
#	216049
#
# Disc length: 3081 seconds
#
# Revision: 1
# Processed by: cddbd v1.5.2PL0 Copyright (c) Steve Scherf et al.
# Submitted via: audiograbber 1.83.01
#
DISCID=d10c0710
DTITLE=WashhouseCompany - Full Wash Gang
DYEAR=1900
DGENRE=
TTITLE0=An Land
TTITLE1=High Barbarie
TTITLE2=Blood red Roses
TTITLE3=Liverpool girls
TTITLE4=Larry Marr
TTITLE5=North West Passage
TTITLE6=Watches
TTITLE7=Killkelly Island
TTITLE8=The water is wide
TTITLE9=Clear away the track
TTITLE10=Amsterdam
TTITLE11=Heidi Marie
TTITLE12=Heuer
TTITLE13=The old Triangle
TTITLE14=Wale bone cutter
TTITLE15=Langeoog Liedje
EXTD=
EXTT0=
EXTT1=
EXTT2=
EXTT3=
EXTT4=
EXTT5=
EXTT6=
EXTT7=
EXTT8=
EXTT9=
EXTT10=
EXTT11=
EXTT12=
EXTT13=
EXTT14=
EXTT15=
PLAYORDER=
